<?xml version="1.0" ?><svg height="24px" version="1.1" viewBox="0 0 24 24" width="24px" xmlns="http://www.w3.org/2000/svg" xmlns:sketch="http://www.bohemiancoding.com/sketch/ns" xmlns:xlink="http://www.w3.org/1999/xlink"><title/><desc/><defs/><g fill="none" fill-rule="evenodd" id="miu" stroke="none" stroke-width="1"><g id="Artboard-1" transform="translate(-755.000000, -515.000000)"><g id="slice" transform="translate(215.000000, 119.000000)"/><path d="M773.923077,531.5 C772.678864,531.5 771.60459,530 770.333333,530 C769.062077,530 768.057469,531.5 766.74359,531.5 C765.42971,531.5 764.526264,530 763.153846,530 C761.781428,530 761.065505,531.5 759.820513,531.5 C758.575521,531.5 757,530 757,530 L759.564103,538 L774.435897,538 L777,530 C777,530 775.16729,531.5 773.923077,531.5 L773.923077,531.5 Z M756,526.377171 C756,527.802225 757,528.977289 757,528.977289 C757,528.977289 758.398926,530.850952 759.789673,530.850952 C761.18042,530.850952 761.401611,529.329712 763.084351,529.329712 C764.76709,529.329712 765.678223,530.846262 766.706421,530.850952 C767.730714,530.855625 769.233243,529.33805 770.307495,529.329712 C771.829224,529.317901 772.781128,530.834394 773.963013,530.850952 C775.144897,530.86751 777.5,529 777.5,529 C777.5,529 778,527.686032 778,526.377171 C778,525.06831 775.819824,518 767,518 C758.180176,518 756,524.952118 756,526.377171 Z M768.5,517 C768.5,517 768.5,516 767.027018,516 C765.554037,516 765.5,517 765.5,517 L768.5,517 L768.5,517 Z" fill="#ffffff" id="food-cupcake-muffin-dessert-birthday-glyph"/></g></g></svg>